<svg xmlns="http://www.w3.org/2000/svg" viewBox="0 0 900 1900" width="900" height="1900">
  <defs>
    <style>
      @import url('https://fonts.googleapis.com/css2?family=Noto+Sans+SC:wght@400;700&amp;display=swap');
      text { font-family: 'Noto Sans SC', 'PingFang SC', 'Microsoft YaHei', sans-serif; }
    </style>

    <!-- Phase gradients -->
    <linearGradient id="phaseA" x1="0%" y1="0%" x2="100%" y2="0%">
      <stop offset="0%" style="stop-color:#1a1a2e"/>
      <stop offset="100%" style="stop-color:#16213e"/>
    </linearGradient>
    <linearGradient id="phaseB" x1="0%" y1="0%" x2="100%" y2="0%">
      <stop offset="0%" style="stop-color:#0f3460"/>
      <stop offset="100%" style="stop-color:#1a4a8a"/>
    </linearGradient>
    <linearGradient id="phaseC" x1="0%" y1="0%" x2="100%" y2="0%">
      <stop offset="0%" style="stop-color:#533483"/>
      <stop offset="100%" style="stop-color:#6a4299"/>
    </linearGradient>
    <linearGradient id="phaseFinal" x1="0%" y1="0%" x2="100%" y2="0%">
      <stop offset="0%" style="stop-color:#c84b31"/>
      <stop offset="100%" style="stop-color:#e05a3a"/>
    </linearGradient>
    <linearGradient id="bg" x1="0%" y1="0%" x2="0%" y2="100%">
      <stop offset="0%" style="stop-color:#0d0d1a"/>
      <stop offset="100%" style="stop-color:#111124"/>
    </linearGradient>
    <linearGradient id="stepGrad1" x1="0%" y1="0%" x2="100%" y2="100%">
      <stop offset="0%" style="stop-color:#1e2a4a"/>
      <stop offset="100%" style="stop-color:#162040"/>
    </linearGradient>
    <linearGradient id="stepGrad2" x1="0%" y1="0%" x2="100%" y2="100%">
      <stop offset="0%" style="stop-color:#1e2a5e"/>
      <stop offset="100%" style="stop-color:#162050"/>
    </linearGradient>
    <linearGradient id="stepGrad3" x1="0%" y1="0%" x2="100%" y2="100%">
      <stop offset="0%" style="stop-color:#2a1e5e"/>
      <stop offset="100%" style="stop-color:#201550"/>
    </linearGradient>

    <!-- Drop shadow -->
    <filter id="shadow" x="-10%" y="-10%" width="120%" height="130%">
      <feDropShadow dx="0" dy="4" stdDeviation="8" flood-color="#000000" flood-opacity="0.5"/>
    </filter>
    <filter id="glow" x="-20%" y="-20%" width="140%" height="140%">
      <feGaussianBlur stdDeviation="3" result="blur"/>
      <feMerge><feMergeNode in="blur"/><feMergeNode in="SourceGraphic"/></feMerge>
    </filter>

    <!-- Arrow marker -->
    <marker id="arrow" markerWidth="10" markerHeight="7" refX="9" refY="3.5" orient="auto">
      <polygon points="0 0, 10 3.5, 0 7" fill="#4a9eff"/>
    </marker>
    <marker id="arrowWhite" markerWidth="10" markerHeight="7" refX="9" refY="3.5" orient="auto">
      <polygon points="0 0, 10 3.5, 0 7" fill="#ffffff44"/>
    </marker>
  </defs>

  <!-- Background -->
  <rect width="900" height="1900" fill="url(#bg)"/>

  <!-- Grid lines subtle -->
  <g opacity="0.04" stroke="#4a9eff" stroke-width="1">
    <line x1="0" y1="100" x2="900" y2="100"/>
    <line x1="0" y1="200" x2="900" y2="200"/>
    <line x1="0" y1="300" x2="900" y2="300"/>
    <line x1="0" y1="400" x2="900" y2="400"/>
    <line x1="0" y1="500" x2="900" y2="500"/>
    <line x1="0" y1="600" x2="900" y2="600"/>
    <line x1="0" y1="700" x2="900" y2="700"/>
    <line x1="0" y1="800" x2="900" y2="800"/>
    <line x1="0" y1="900" x2="900" y2="900"/>
    <line x1="0" y1="1000" x2="900" y2="1000"/>
    <line x1="0" y1="1100" x2="900" y2="1100"/>
    <line x1="0" y1="1200" x2="900" y2="1200"/>
    <line x1="0" y1="1300" x2="900" y2="1300"/>
    <line x1="0" y1="1400" x2="900" y2="1400"/>
    <line x1="0" y1="1500" x2="900" y2="1500"/>
    <line x1="0" y1="1600" x2="900" y2="1600"/>
    <line x1="0" y1="1700" x2="900" y2="1700"/>
    <line x1="0" y1="1800" x2="900" y2="1800"/>
    <line x1="100" y1="0" x2="100" y2="1900"/>
    <line x1="800" y1="0" x2="800" y2="1900"/>
  </g>

  <!-- ===== TITLE ===== -->
  <rect x="50" y="30" width="800" height="70" rx="10" fill="#ffffff08" stroke="#4a9eff44" stroke-width="1"/>
  <text x="450" y="58" text-anchor="middle" fill="#4a9eff" font-size="13" letter-spacing="4" opacity="0.7">DEVELOPMENT SOP</text>
  <text x="450" y="84" text-anchor="middle" fill="#ffffff" font-size="22" font-weight="700" letter-spacing="2">Quicker 轮盘菜单  开发流程总图</text>

  <!-- ===== PHASE LABELS (left side) ===== -->
  <!-- Phase 1 -->
  <rect x="18" y="130" width="22" height="410" rx="4" fill="url(#phaseA)" filter="url(#shadow)"/>
  <text x="29" y="340" text-anchor="middle" fill="#7eb8ff" font-size="11" font-weight="700" letter-spacing="2" transform="rotate(-90,29,340)">PHASE 1  圆盘界面</text>

  <!-- Phase 2 -->
  <rect x="18" y="560" width="22" height="350" rx="4" fill="url(#phaseB)" filter="url(#shadow)"/>
  <text x="29" y="740" text-anchor="middle" fill="#a0cfff" font-size="11" font-weight="700" letter-spacing="2" transform="rotate(-90,29,740)">PHASE 2  设置界面</text>

  <!-- Phase 3 -->
  <rect x="18" y="930" width="22" height="450" rx="4" fill="url(#phaseC)" filter="url(#shadow)"/>
  <text x="29" y="1160" text-anchor="middle" fill="#cfb0ff" font-size="11" font-weight="700" letter-spacing="2" transform="rotate(-90,29,1160)">PHASE 3  功能逻辑</text>

  <!-- Phase 4 -->
  <rect x="18" y="1400" width="22" height="330" rx="4" fill="url(#phaseFinal)" filter="url(#shadow)"/>
  <text x="29" y="1570" text-anchor="middle" fill="#ffb09a" font-size="11" font-weight="700" letter-spacing="2" transform="rotate(-90,29,1570)">PHASE 4  集成测试</text>


  <!-- ============================================================ -->
  <!-- PHASE 1: 圆盘界面 -->
  <!-- ============================================================ -->

  <!-- Phase header -->
  <rect x="50" y="128" width="800" height="38" rx="8" fill="#1a2a4a" stroke="#4a9eff55" stroke-width="1"/>
  <circle cx="75" cy="147" r="10" fill="#4a9eff22" stroke="#4a9eff" stroke-width="1.5"/>
  <text x="75" y="152" text-anchor="middle" fill="#4a9eff" font-size="13" font-weight="700">1</text>
  <text x="100" y="152" fill="#4a9eff" font-size="14" font-weight="700" letter-spacing="1">圆盘界面层  —  纯视觉渲染，无逻辑</text>

  <!-- Step 1.1 -->
  <rect x="50" y="178" width="800" height="72" rx="8" fill="url(#stepGrad1)" stroke="#4a9eff33" stroke-width="1" filter="url(#shadow)"/>
  <rect x="50" y="178" width="5" height="72" rx="2" fill="#4a9eff"/>
  <text x="72" y="200" fill="#7eb8ff" font-size="10" letter-spacing="2" opacity="0.8">STEP 1.1</text>
  <text x="72" y="220" fill="#ffffff" font-size="14" font-weight="700">搭建圆盘基础几何结构</text>
  <text x="72" y="238" fill="#8899bb" font-size="11">无边框透明窗口  ·  圆心定位  ·  三圈半径（20 / 80 / 160 px）  ·  Canvas 或 SVG 渲染层</text>

  <!-- Arrow -->
  <line x1="450" y1="250" x2="450" y2="268" stroke="#4a9eff66" stroke-width="2" marker-end="url(#arrow)"/>

  <!-- Step 1.2 -->
  <rect x="50" y="270" width="800" height="72" rx="8" fill="url(#stepGrad1)" stroke="#4a9eff33" stroke-width="1" filter="url(#shadow)"/>
  <rect x="50" y="270" width="5" height="72" rx="2" fill="#4a9eff"/>
  <text x="72" y="292" fill="#7eb8ff" font-size="10" letter-spacing="2" opacity="0.8">STEP 1.2</text>
  <text x="72" y="312" fill="#ffffff" font-size="14" font-weight="700">扇形格子绘制 + 分隔线</text>
  <text x="72" y="330" fill="#8899bb" font-size="11">内圈 8格×45°  ·  外圈 8/16格  ·  放射分隔线 1px  ·  格子高亮状态切换色</text>

  <!-- Arrow -->
  <line x1="450" y1="342" x2="450" y2="360" stroke="#4a9eff66" stroke-width="2" marker-end="url(#arrow)"/>

  <!-- Step 1.3 -->
  <rect x="50" y="362" width="800" height="72" rx="8" fill="url(#stepGrad1)" stroke="#4a9eff33" stroke-width="1" filter="url(#shadow)"/>
  <rect x="50" y="362" width="5" height="72" rx="2" fill="#4a9eff"/>
  <text x="72" y="384" fill="#7eb8ff" font-size="10" letter-spacing="2" opacity="0.8">STEP 1.3</text>
  <text x="72" y="404" fill="#ffffff" font-size="14" font-weight="700">格子内元素渲染</text>
  <text x="72" y="422" fill="#8899bb" font-size="11">图标 24×24px  ·  文字标签 11px  ·  圆心信息区 20px半径  ·  图标/文字显隐规则</text>

  <!-- Arrow -->
  <line x1="450" y1="434" x2="450" y2="452" stroke="#4a9eff66" stroke-width="2" marker-end="url(#arrow)"/>

  <!-- Step 1.4 -->
  <rect x="50" y="454" width="800" height="72" rx="8" fill="url(#stepGrad1)" stroke="#4a9eff33" stroke-width="1" filter="url(#shadow)"/>
  <rect x="50" y="454" width="5" height="72" rx="2" fill="#4a9eff"/>
  <text x="72" y="476" fill="#7eb8ff" font-size="10" letter-spacing="2" opacity="0.8">STEP 1.4</text>
  <text x="72" y="496" fill="#ffffff" font-size="14" font-weight="700">弹出 / 关闭动画</text>
  <text x="72" y="514" fill="#8899bb" font-size="11">弹出 scale 0.3→1.0 + fade-in 120ms  ·  关闭 scale 1.0→0.5 + fade-out 80ms  ·  屏幕边缘偏移</text>

  <!-- Phase 1 complete badge -->
  <rect x="680" y="536" width="170" height="26" rx="13" fill="#4a9eff22" stroke="#4a9eff66" stroke-width="1"/>
  <text x="765" y="554" text-anchor="middle" fill="#4a9eff" font-size="11" font-weight="700">✓ 圆盘视觉完成</text>

  <!-- Big arrow phase 1→2 -->
  <line x1="450" y1="540" x2="450" y2="556" stroke="#4a9eff" stroke-width="2.5" marker-end="url(#arrow)"/>


  <!-- ============================================================ -->
  <!-- PHASE 2: 设置界面 -->
  <!-- ============================================================ -->

  <rect x="50" y="558" width="800" height="38" rx="8" fill="#0f2a5a" stroke="#5599ff55" stroke-width="1"/>
  <circle cx="75" cy="577" r="10" fill="#3a7aff22" stroke="#5599ff" stroke-width="1.5"/>
  <text x="75" y="582" text-anchor="middle" fill="#5599ff" font-size="13" font-weight="700">2</text>
  <text x="100" y="582" fill="#5599ff" font-size="14" font-weight="700" letter-spacing="1">设置界面层  —  配置 UI，读写数据</text>

  <!-- Step 2.1 -->
  <rect x="50" y="608" width="800" height="72" rx="8" fill="url(#stepGrad2)" stroke="#3a7aff33" stroke-width="1" filter="url(#shadow)"/>
  <rect x="50" y="608" width="5" height="72" rx="2" fill="#5599ff"/>
  <text x="72" y="630" fill="#80aaff" font-size="10" letter-spacing="2" opacity="0.8">STEP 2.1</text>
  <text x="72" y="650" fill="#ffffff" font-size="14" font-weight="700">轮盘动作管理面板</text>
  <text x="72" y="668" fill="#8899bb" font-size="11">可视化圆盘示意图  ·  格子颜色状态（白/淡黄浅/淡黄深/覆盖色）  ·  点击/右键设置动作</text>

  <line x1="450" y1="680" x2="450" y2="698" stroke="#5599ff66" stroke-width="2" marker-end="url(#arrow)"/>

  <!-- Step 2.2 -->
  <rect x="50" y="700" width="800" height="72" rx="8" fill="url(#stepGrad2)" stroke="#3a7aff33" stroke-width="1" filter="url(#shadow)"/>
  <rect x="50" y="700" width="5" height="72" rx="2" fill="#5599ff"/>
  <text x="72" y="722" fill="#80aaff" font-size="10" letter-spacing="2" opacity="0.8">STEP 2.2</text>
  <text x="72" y="742" fill="#ffffff" font-size="14" font-weight="700">全局参数设置面板</text>
  <text x="72" y="760" fill="#8899bb" font-size="11">触发键选择  ·  轮盘尺寸  ·  超时时间  ·  外圈16格开关  ·  屏幕边缘限制  ·  图标隐藏文字</text>

  <line x1="450" y1="772" x2="450" y2="790" stroke="#5599ff66" stroke-width="2" marker-end="url(#arrow)"/>

  <!-- Step 2.3 -->
  <rect x="50" y="792" width="800" height="72" rx="8" fill="url(#stepGrad2)" stroke="#3a7aff33" stroke-width="1" filter="url(#shadow)"/>
  <rect x="50" y="792" width="5" height="72" rx="2" fill="#5599ff"/>
  <text x="72" y="814" fill="#80aaff" font-size="10" letter-spacing="2" opacity="0.8">STEP 2.3</text>
  <text x="72" y="834" fill="#ffffff" font-size="14" font-weight="700">场景管理面板</text>
  <text x="72" y="852" fill="#8899bb" font-size="11">全局场景 / 软件特定场景  ·  进程名绑定  ·  场景优先级覆盖逻辑  ·  拖放动作绑定</text>

  <!-- Phase 2 complete badge -->
  <rect x="680" y="874" width="170" height="26" rx="13" fill="#5599ff22" stroke="#5599ff66" stroke-width="1"/>
  <text x="765" y="892" text-anchor="middle" fill="#5599ff" font-size="11" font-weight="700">✓ 设置 UI 完成</text>

  <line x1="450" y1="878" x2="450" y2="926" stroke="#5599ff" stroke-width="2.5" marker-end="url(#arrow)"/>

  <!-- ============================================================ -->
  <!-- PHASE 3: 功能逻辑 -->
  <!-- ============================================================ -->

  <rect x="50" y="928" width="800" height="38" rx="8" fill="#2a1a5a" stroke="#9955ff55" stroke-width="1"/>
  <circle cx="75" cy="947" r="10" fill="#7a3aff22" stroke="#9955ff" stroke-width="1.5"/>
  <text x="75" y="952" text-anchor="middle" fill="#9955ff" font-size="13" font-weight="700">3</text>
  <text x="100" y="952" fill="#9955ff" font-size="14" font-weight="700" letter-spacing="1">功能逻辑层  —  交互、触发、动作执行</text>

  <!-- Step 3.1 -->
  <rect x="50" y="978" width="800" height="72" rx="8" fill="url(#stepGrad3)" stroke="#7a3aff33" stroke-width="1" filter="url(#shadow)"/>
  <rect x="50" y="978" width="5" height="72" rx="2" fill="#9955ff"/>
  <text x="72" y="1000" fill="#bb88ff" font-size="10" letter-spacing="2" opacity="0.8">STEP 3.1</text>
  <text x="72" y="1020" fill="#ffffff" font-size="14" font-weight="700">鼠标钩子 + 触发状态机</text>
  <text x="72" y="1038" fill="#8899bb" font-size="11">监听触发键按下  ·  判断"按下后是否移动"  ·  IDLE / SHOWN / HIGHLIGHTED / TRIGGERED 状态</text>

  <line x1="450" y1="1050" x2="450" y2="1068" stroke="#9955ff66" stroke-width="2" marker-end="url(#arrow)"/>

  <!-- Step 3.2 -->
  <rect x="50" y="1070" width="800" height="72" rx="8" fill="url(#stepGrad3)" stroke="#7a3aff33" stroke-width="1" filter="url(#shadow)"/>
  <rect x="50" y="1070" width="5" height="72" rx="2" fill="#9955ff"/>
  <text x="72" y="1092" fill="#bb88ff" font-size="10" letter-spacing="2" opacity="0.8">STEP 3.2</text>
  <text x="72" y="1112" fill="#ffffff" font-size="14" font-weight="700">方向判断算法</text>
  <text x="72" y="1130" fill="#8899bb" font-size="11">atan2(dx,-dy) 计算角度  ·  距离判断三圈  ·  高亮扇区实时更新  ·  圆心死区处理</text>

  <line x1="450" y1="1142" x2="450" y2="1160" stroke="#9955ff66" stroke-width="2" marker-end="url(#arrow)"/>

  <!-- Step 3.3 -->
  <rect x="50" y="1162" width="800" height="72" rx="8" fill="url(#stepGrad3)" stroke="#7a3aff33" stroke-width="1" filter="url(#shadow)"/>
  <rect x="50" y="1162" width="5" height="72" rx="2" fill="#9955ff"/>
  <text x="72" y="1184" fill="#bb88ff" font-size="10" letter-spacing="2" opacity="0.8">STEP 3.3</text>
  <text x="72" y="1204" fill="#ffffff" font-size="14" font-weight="700">动作执行引擎</text>
  <text x="72" y="1222" fill="#8899bb" font-size="11">发送快捷键 / 粘贴文本 / 打开路径 / 运行动作引用  ·  参数传递  ·  动作引用失效提示</text>

  <line x1="450" y1="1234" x2="450" y2="1252" stroke="#9955ff66" stroke-width="2" marker-end="url(#arrow)"/>

  <!-- Step 3.4 -->
  <rect x="50" y="1254" width="800" height="72" rx="8" fill="url(#stepGrad3)" stroke="#7a3aff33" stroke-width="1" filter="url(#shadow)"/>
  <rect x="50" y="1254" width="5" height="72" rx="2" fill="#9955ff"/>
  <text x="72" y="1276" fill="#bb88ff" font-size="10" letter-spacing="2" opacity="0.8">STEP 3.4</text>
  <text x="72" y="1296" fill="#ffffff" font-size="14" font-weight="700">场景上下文切换</text>
  <text x="72" y="1314" fill="#8899bb" font-size="11">检测当前活动进程名  ·  软件场景覆盖全局场景  ·  F1 重复触发  ·  超时自动取消</text>

  <!-- Phase 3 complete badge -->
  <rect x="680" y="1336" width="170" height="26" rx="13" fill="#9955ff22" stroke="#9955ff66" stroke-width="1"/>
  <text x="765" y="1354" text-anchor="middle" fill="#9955ff" font-size="11" font-weight="700">✓ 功能逻辑完成</text>

  <line x1="450" y1="1340" x2="450" y2="1396" stroke="#9955ff" stroke-width="2.5" marker-end="url(#arrow)"/>

  <!-- ============================================================ -->
  <!-- PHASE 4: 集成与测试 -->
  <!-- ============================================================ -->

  <rect x="50" y="1398" width="800" height="38" rx="8" fill="#3a1a10" stroke="#ff6633aa" stroke-width="1"/>
  <circle cx="75" cy="1417" r="10" fill="#ff551122" stroke="#ff6633" stroke-width="1.5"/>
  <text x="75" y="1422" text-anchor="middle" fill="#ff6633" font-size="13" font-weight="700">4</text>
  <text x="100" y="1422" fill="#ff6633" font-size="14" font-weight="700" letter-spacing="1">集成 &amp; 测试  —  三层对接，验收</text>

  <!-- 两列布局 -->
  <!-- 左列 -->
  <rect x="50" y="1448" width="385" height="80" rx="8" fill="#2a1a10" stroke="#ff663333" stroke-width="1" filter="url(#shadow)"/>
  <rect x="50" y="1448" width="5" height="80" rx="2" fill="#ff6633"/>
  <text x="72" y="1468" fill="#ffaa88" font-size="10" letter-spacing="2" opacity="0.8">STEP 4.1</text>
  <text x="72" y="1490" fill="#ffffff" font-size="13" font-weight="700">三层对接验证</text>
  <text x="72" y="1508" fill="#8899bb" font-size="10">圆盘渲染 ↔ 功能逻辑数据绑定</text>
  <text x="72" y="1520" fill="#8899bb" font-size="10">设置 UI ↔ 本地数据持久化读写</text>

  <!-- 右列 -->
  <rect x="465" y="1448" width="385" height="80" rx="8" fill="#2a1a10" stroke="#ff663333" stroke-width="1" filter="url(#shadow)"/>
  <rect x="465" y="1448" width="5" height="80" rx="2" fill="#ff6633"/>
  <text x="487" y="1468" fill="#ffaa88" font-size="10" letter-spacing="2" opacity="0.8">STEP 4.2</text>
  <text x="487" y="1490" fill="#ffffff" font-size="13" font-weight="700">边界 &amp; 异常测试</text>
  <text x="487" y="1508" fill="#8899bb" font-size="10">屏幕边缘 / 多显示器 / 高DPI</text>
  <text x="487" y="1520" fill="#8899bb" font-size="10">动作引用失联 / 触发键冲突检测</text>

  <line x1="450" y1="1528" x2="450" y2="1548" stroke="#ff663366" stroke-width="2" marker-end="url(#arrow)"/>

  <!-- 左列 -->
  <rect x="50" y="1550" width="385" height="80" rx="8" fill="#2a1a10" stroke="#ff663333" stroke-width="1" filter="url(#shadow)"/>
  <rect x="50" y="1550" width="5" height="80" rx="2" fill="#ff6633"/>
  <text x="72" y="1570" fill="#ffaa88" font-size="10" letter-spacing="2" opacity="0.8">STEP 4.3</text>
  <text x="72" y="1592" fill="#ffffff" font-size="13" font-weight="700">主题 &amp; 外观验证</text>
  <text x="72" y="1610" fill="#8899bb" font-size="10">浅色 / 深色主题切换</text>
  <text x="72" y="1622" fill="#8899bb" font-size="10">自定义外观皮肤兼容性</text>

  <!-- 右列 -->
  <rect x="465" y="1550" width="385" height="80" rx="8" fill="#2a1a10" stroke="#ff663333" stroke-width="1" filter="url(#shadow)"/>
  <rect x="465" y="1550" width="5" height="80" rx="2" fill="#ff6633"/>
  <text x="487" y="1570" fill="#ffaa88" font-size="10" letter-spacing="2" opacity="0.8">STEP 4.4</text>
  <text x="487" y="1592" fill="#ffffff" font-size="13" font-weight="700">性能优化</text>
  <text x="487" y="1610" fill="#8899bb" font-size="10">鼠标事件响应延迟 &lt; 16ms</text>
  <text x="487" y="1622" fill="#8899bb" font-size="10">动画帧率 60fps / 内存泄漏检查</text>

  <line x1="450" y1="1630" x2="450" y2="1650" stroke="#ff6633" stroke-width="2.5" marker-end="url(#arrow)"/>

  <!-- ===== FINAL: 发布 ===== -->
  <rect x="200" y="1652" width="500" height="60" rx="12" fill="#1a3a1a" stroke="#44ff88" stroke-width="2" filter="url(#shadow)"/>
  <text x="450" y="1680" text-anchor="middle" fill="#44ff88" font-size="15" font-weight="700" letter-spacing="2">🚀  发布  /  Release</text>
  <text x="450" y="1700" text-anchor="middle" fill="#66bb88" font-size="11">完整功能可用  ·  文档齐备  ·  数据持久化验证</text>

  <!-- ===== DEPENDENCY LINES (phase vertical connectors) ===== -->
  <!-- subtle bracket lines on the right side -->
  <line x1="855" y1="178" x2="870" y2="178" stroke="#4a9eff33" stroke-width="1"/>
  <line x1="870" y1="178" x2="870" y2="526" stroke="#4a9eff33" stroke-width="1"/>
  <line x1="870" y1="526" x2="855" y2="526" stroke="#4a9eff33" stroke-width="1"/>
  <text x="875" y="358" fill="#4a9eff44" font-size="10" transform="rotate(90,875,358)">独立可测试</text>

  <line x1="855" y1="608" x2="870" y2="608" stroke="#5599ff33" stroke-width="1"/>
  <line x1="870" y1="608" x2="870" y2="864" stroke="#5599ff33" stroke-width="1"/>
  <line x1="870" y1="864" x2="855" y2="864" stroke="#5599ff33" stroke-width="1"/>
  <text x="875" y="742" fill="#5599ff44" font-size="10" transform="rotate(90,875,742)">独立可测试</text>

  <line x1="855" y1="978" x2="870" y2="978" stroke="#9955ff33" stroke-width="1"/>
  <line x1="870" y1="978" x2="870" y2="1326" stroke="#9955ff33" stroke-width="1"/>
  <line x1="870" y1="1326" x2="855" y2="1326" stroke="#9955ff33" stroke-width="1"/>
  <text x="875" y="1158" fill="#9955ff44" font-size="10" transform="rotate(90,875,1158)">依赖 Phase1+2</text>

  <!-- ===== BOTTOM LEGEND ===== -->
  <rect x="50" y="1750" width="800" height="90" rx="8" fill="#ffffff05" stroke="#ffffff11" stroke-width="1"/>
  <text x="450" y="1773" text-anchor="middle" fill="#ffffff44" font-size="11" letter-spacing="3">LEGEND</text>

  <rect x="80" y="1783" width="16" height="16" rx="2" fill="#4a9eff"/>
  <text x="104" y="1796" fill="#aabbcc" font-size="11">Phase 1  圆盘界面（纯渲染）</text>

  <rect x="300" y="1783" width="16" height="16" rx="2" fill="#5599ff"/>
  <text x="324" y="1796" fill="#aabbcc" font-size="11">Phase 2  设置界面</text>

  <rect x="500" y="1783" width="16" height="16" rx="2" fill="#9955ff"/>
  <text x="524" y="1796" fill="#aabbcc" font-size="11">Phase 3  功能逻辑</text>

  <rect x="680" y="1783" width="16" height="16" rx="2" fill="#ff6633"/>
  <text x="704" y="1796" fill="#aabbcc" font-size="11">Phase 4  集成测试</text>

  <line x1="80" y1="1822" x2="120" y2="1822" stroke="#4a9eff66" stroke-width="2" marker-end="url(#arrow)"/>
  <text x="130" y="1827" fill="#aabbcc" font-size="11">开发顺序流向</text>

  <rect x="300" y="1814" width="16" height="16" rx="2" fill="#ffffff08" stroke="#44ff8888" stroke-width="1"/>
  <text x="324" y="1827" fill="#aabbcc" font-size="11">可独立测试单元</text>

  <text x="550" y="1827" fill="#ffffff33" font-size="10">px 数值基于 DPI 100% 默认尺寸</text>
</svg>
